<?xml version="1.0" encoding="UTF-8" standalone="no"?>
<!-- Created with Inkscape (http://www.inkscape.org/) -->

<svg
   version="1.1"
   id="svg1"
   width="500"
   height="500"
   viewBox="0 0 500 500"
   sodipodi:docname="splash_screen.png"
   inkscape:version="1.3.2 (091e20e, 2023-11-25, custom)"
   xmlns:inkscape="http://www.inkscape.org/namespaces/inkscape"
   xmlns:sodipodi="http://sodipodi.sourceforge.net/DTD/sodipodi-0.dtd"
   xmlns="http://www.w3.org/2000/svg"
   xmlns:svg="http://www.w3.org/2000/svg">
  <defs
     id="defs1" />
  <sodipodi:namedview
     id="namedview1"
     pagecolor="#505050"
     bordercolor="#eeeeee"
     borderopacity="1"
     inkscape:showpageshadow="0"
     inkscape:pageopacity="0"
     inkscape:pagecheckerboard="0"
     inkscape:deskcolor="#505050"
     showgrid="false"
     inkscape:zoom="1.642"
     inkscape:cx="250"
     inkscape:cy="250"
     inkscape:window-width="1920"
     inkscape:window-height="1017"
     inkscape:window-x="-8"
     inkscape:window-y="-8"
     inkscape:window-maximized="1"
     inkscape:current-layer="g1" />
  <g
     inkscape:groupmode="layer"
     inkscape:label="Image"
     id="g1">
    <g
       id="g2">
      <path
         style="fill:#38f800"
         d="M 21,249.5 V 20 H 250 479 V 249.5 479 H 250 21 Z M 466,250 V 34 H 250 34 V 250 466 H 250 466 Z M 112.22238,443.25 c 0.25061,-0.9625 7.37506,-37.4125 15.83212,-81 L 143.43098,283 h 23.60189 23.60189 l 1.61452,5.25 c 0.88798,2.8875 7.33753,24.49513 14.33233,48.01695 6.9948,23.52183 12.87797,42.60681 13.0737,42.41107 C 220.0161,378.31723 248,284.31343 248,283.46225 248,283.20801 258.68951,283 271.75447,283 h 23.75447 l 15.41417,79.75 c 8.47779,43.8625 15.61466,80.32092 15.8597,81.01871 0.35338,1.00632 -4.37517,1.21314 -22.863,1 L 280.61129,444.5 273.09301,400.3224 c -4.13506,-24.29768 -7.78462,-44.013 -8.11014,-43.81182 -0.32551,0.20119 -6.19233,20.19278 -13.03736,44.42578 L 239.5,444.99635 l -20,5e-4 -20,5.1e-4 -11.39629,-40.24868 C 181.83575,382.61191 176.03064,362.25 175.20346,359.5 l -1.50396,-5 -7.78555,45 c -4.28205,24.75 -7.81444,45.1125 -7.84975,45.25 -0.0353,0.1375 -10.46668,0.25 -23.18083,0.25 -21.52275,0 -23.08522,-0.12066 -22.66099,-1.75 z m 40.01918,-14.5 c 0.82477,-4.5375 4.79032,-27.7125 8.81232,-51.5 L 168.36662,334 h 4.2493 c 3.17688,0 4.38406,0.44166 4.78326,1.75 0.29367,0.9625 6.64497,23.35 14.11399,49.75 7.46902,26.4 13.81439,48.7875 14.10082,49.75 0.46215,1.55296 2.01986,1.75 13.83503,1.75 h 13.31424 l 13.25573,-46.75 c 7.29065,-25.7125 13.88635,-48.8875 14.65711,-51.5 1.38519,-4.69512 1.45015,-4.75 5.6224,-4.75 h 4.22102 l 8.33822,49.25 c 4.58602,27.0875 8.56791,50.2625 8.84865,51.5 0.49928,2.20086 0.81383,2.25 14.40202,2.25 13.75595,0 13.89105,-0.022 13.83583,-2.25 -0.0307,-1.2375 -6.23503,-33.975 -13.78748,-72.75 l -13.73172,-70.5 h -16.90432 -16.90431 l -17.23088,58.33934 c -9.47698,32.08663 -17.4254,58.53386 -17.66315,58.77162 -0.3876,0.38759 -4.83112,-14.25597 -28.55758,-94.11096 l -6.83374,-23 H 167.43082 150.53059 L 136.80071,362 c -7.55143,38.775 -13.74581,71.5125 -13.76529,72.75 -0.0351,2.2269 0.10701,2.25 13.83557,2.25 h 13.87098 z M 332,364 v -81 h 21.5 21.5 v 81 81 H 353.5 332 Z m 34,0 V 291 H 353.5 341 v 73 73 H 353.5 366 Z M 115.65499,257.17126 c -2.24831,-2.48435 -2.08005,-4.87341 0.43815,-6.22111 3.98414,-2.13224 8.73361,0.73179 7.32046,4.4144 -0.41862,1.09091 -4.48215,3.63545 -5.80567,3.63545 -0.16387,0 -1.0427,-0.82293 -1.95294,-1.82874 z m 19.58799,-0.32828 c -3.25583,-3.25583 0.69214,-8.01844 4.81695,-5.81091 3.04879,1.63167 2.30146,6.36727 -1.06695,6.76091 -1.37887,0.16113 -3.06637,-0.26637 -3.75,-0.95 z m 19.42369,0.49035 C 154.3,256.96667 154,255.6325 154,254.36852 c 0,-4.07619 5.98262,-5.46216 7.4191,-1.71876 1.32605,3.45564 -4.16896,7.26705 -6.75243,4.68357 z m 17.71737,-0.77492 c -1.06236,-2.76846 0.0934,-5.05378 2.71011,-5.35897 3.44986,-0.40235 5.42171,1.96815 3.94006,4.73664 -1.28025,2.39217 -5.80841,2.81593 -6.65017,0.62233 z m 17.65583,-0.0104 C 187.81275,253.86452 189.19929,251.5 193,251.5 c 2.54754,0 3.56485,0.47898 3.81888,1.79804 C 197.25729,255.5745 195.28732,258 193,258 c -0.96531,0 -2.29737,-0.65338 -2.96013,-1.45196 z m 20,0 c -1.88879,-2.27585 -0.83818,-5.01125 2.05428,-5.3486 3.44986,-0.40235 5.42171,1.96815 3.94006,4.73664 -1.28351,2.39826 -4.25968,2.7021 -5.99434,0.61196 z m 20,0 c -2.06007,-2.48223 -0.83265,-5.01788 2.59067,-5.35188 3.56094,-0.34743 4.99932,1.75843 3.33069,4.87628 -1.21989,2.27939 -4.22409,2.52069 -5.92136,0.4756 z m 15.89056,-0.13186 c -1.89268,-2.28054 0.0795,-4.91618 3.67856,-4.91618 2.28629,0 2.9616,0.49928 3.2285,2.38691 0.54708,3.86918 -4.31685,5.65028 -6.90706,2.52927 z m 20.73624,0.91715 c -1.33011,-1.33011 -0.62397,-5.28581 1.10915,-6.21335 3.69847,-1.97936 7.00976,2.69444 4.02418,5.68002 -1.30743,1.30743 -4.072,1.59466 -5.13333,0.53333 z m 19.6428,-0.96925 c -0.96876,-2.52453 1.09925,-4.86408 4.29952,-4.86408 2.28629,0 2.9616,0.49928 3.2285,2.38691 0.18562,1.3128 -0.26438,2.76841 -1,3.23469 -2.21922,1.40666 -5.85965,0.98422 -6.52802,-0.75752 z M 303.75,256.9199 c -2.37871,-1.38547 -2.20733,-4.60478 0.31706,-5.95579 1.60793,-0.86054 2.60745,-0.75218 4.5,0.48787 2.76604,1.81238 2.81338,1.96864 1.39776,4.61376 -1.13262,2.11631 -3.49127,2.44048 -6.21482,0.85416 z m 20.26227,-0.89698 c -1.53436,-2.86697 2.14368,-6.54501 5.01065,-5.01065 2.21741,1.18672 2.59155,3.97326 0.77708,5.78773 -1.81447,1.81447 -4.60101,1.44033 -5.78773,-0.77708 z m 19.02756,0.52507 c -1.55428,-1.87279 -0.49538,-5.1956 1.85126,-5.80926 2.46447,-0.64447 5.10891,0.9658 5.10891,3.11096 0,3.74862 -4.6064,5.53442 -6.96017,2.6983 z m 17.56716,-0.12978 C 359.54526,253.65138 359.94403,252.10032 362,251 c 4.03707,-2.16057 7.98734,2.61266 4.8,5.8 -1.71444,1.71444 -5.47764,1.48244 -6.19301,-0.38179 z m 17.77705,0.1402 c -1.15612,-3.0128 0.0654,-5.05841 3.02067,-5.05841 3.58571,0 5.55383,2.64011 3.66486,4.91618 -1.64253,1.97912 -5.94552,2.07067 -6.68553,0.14223 z M 303.67863,220.9356 c -17.29386,-1.98803 -34.41536,-10.04891 -47.5527,-22.38805 -34.43724,-32.34489 -36.16853,-83.17817 -3.98676,-117.057206 24.81014,-26.118629 59.47171,-33.86835 91.77637,-20.519592 10.31301,4.26149 17.84609,9.572894 27.58446,19.449188 9.59274,9.728598 13.91458,16.147729 18.56399,27.57268 11.82847,29.06593 5.46398,62.0007 -16.58148,85.80539 -18.4086,19.87759 -44.5502,30.04064 -69.80388,27.13759 z m 23.11146,-9.52727 c 14.13023,-2.91868 25.80969,-9.08094 36.51304,-19.26481 C 379.434,176.79555 387,159.50846 387,138 387,116.68282 380.6326,101.6326 365,86 354.34465,75.344649 346.49216,70.272008 334.5,66.297259 c -7.12496,-2.361536 -9.53132,-2.651565 -22,-2.651565 -12.46868,0 -14.87504,0.290029 -22,2.651565 -12.02091,3.984277 -19.84375,9.043684 -30.5,19.72581 C 244.343,101.71809 238,116.70398 238,138 c 0,16.94979 3.76035,28.77088 13.54188,42.57043 17.41196,24.5644 46.97191,36.67853 75.24821,30.8379 z M 305.5,186.94663 c -11.54127,-1.98178 -21.23094,-7.45831 -29.38721,-16.60944 -14.04018,-15.75273 -16.9779,-35.52433 -8.02593,-54.01662 3.24431,-6.70184 14.7442,-18.418882 21.73403,-22.144422 20.29681,-10.818088 41.54412,-7.051621 58.01074,10.283452 9.79717,10.31387 14.13167,20.44253 14.1565,33.0803 0.0572,29.12625 -28.60427,54.19472 -56.48813,49.40673 z m 23.15125,-11.87471 c 7.75714,-3.62484 16.8292,-12.5864 20.84875,-20.59482 2.76336,-5.50562 3,-6.80534 3,-16.4771 0,-9.32659 -0.30274,-11.14607 -2.70897,-16.28122 -3.73499,-7.97086 -12.28562,-16.65545 -20.50725,-20.82853 C 323.00035,97.700949 322.00553,97.5 312.5,97.5 c -9.50553,0 -10.50035,0.200949 -16.78378,3.39025 -8.22163,4.17308 -16.77226,12.85767 -20.50725,20.82853 C 272.80274,126.85393 272.5,128.67341 272.5,138 c 0,9.68078 0.23372,10.96127 2.99556,16.41215 5.56019,10.9738 18.21872,21.36699 28.72696,23.58605 7.22501,1.52573 17.54762,0.2892 24.42873,-2.92628 z M 109,138 V 57 h 35.91091 c 32.43603,0 36.49992,0.183324 41.99813,1.89456 7.91071,2.462088 14.51285,6.767038 21.2749,13.872366 7.28942,7.659475 10.42267,13.296644 12.95373,23.305626 6.32027,24.993268 -4.54295,51.474468 -25.4733,62.096118 l -4.83563,2.45396 19.85561,25.43869 c 10.92058,13.99127 21.13753,27.12618 22.70432,29.18868 l 2.84871,3.75 H 209.2747 182.31201 l -15.15342,-22.75 -15.15342,-22.75 -0.003,22.75 L 152,219 H 130.5 109 Z m 34,45.5 V 156 h 3.84569 3.84569 L 169,183.5 187.30862,211 h 15.96813 c 12.62932,0 15.7637,-0.26137 14.99037,-1.25 -24.32353,-31.09572 -40.4568,-52.08071 -40.87248,-53.16398 -0.377,-0.98243 0.62375,-1.58228 3.431,-2.05656 6.5842,-1.1124 15.95702,-6.17281 20.96805,-11.32073 9.00638,-9.2524 12.6813,-20.27169 12.03597,-36.09007 -0.33584,-8.232114 -0.84937,-10.592914 -3.56248,-16.377187 C 204.11544,77.626127 192.02196,68.20458 178.5,65.992939 175.2,65.453194 160.2375,65.008978 145.25,65.005792 L 118,65 v 73 73 h 12.5 12.5 z m 0.50108,-46.6366 c -0.29469,-0.76793 -0.41548,-13.08885 -0.26844,-27.37982 L 143.5,83.5 l 14,0.02919 c 15.71452,0.03277 18.9245,0.96198 25.28068,7.318153 10.21558,10.215586 10.28379,28.934336 0.1424,39.075736 -5.86834,5.86834 -10.72121,7.35836 -25.65465,7.87702 -10.71366,0.3721 -13.33352,0.19385 -13.76735,-0.9367 z m 28.9332,-9.84856 c 5.63248,-2.75017 8.62132,-7.53644 9.2864,-14.87109 0.72482,-7.99348 -2.09958,-14.109412 -8.15459,-17.657884 C 169.93146,92.355829 168.08438,92 160.66214,92 H 152 v 18.5 18.5 h 8.18428 c 6.13185,0 9.20386,-0.49783 12.25,-1.98516 z"
         id="path3" />
      <path
         style="fill:#000100"
         d="M 0,250 V 0 H 250 500 V 250 500 H 250 0 Z m 479,-0.5 V 20 H 250 21 V 249.5 479 H 250 479 Z M 34,250 V 34 H 250 466 V 250 466 H 250 34 Z m 124.0642,194.75 c 0.0353,-0.1375 3.5677,-20.5 7.84975,-45.25 l 7.78555,-45 1.50396,5 c 0.82718,2.75 6.63229,23.11191 12.90025,45.24868 l 11.39629,40.24868 20,-5.1e-4 20,-5e-4 12.44551,-44.05999 c 6.84503,-24.233 12.71185,-44.22459 13.03736,-44.42578 0.32552,-0.20118 3.97508,19.51414 8.11014,43.81182 l 7.51828,44.1776 23.30852,0.26871 c 18.48783,0.21314 23.21638,0.006 22.863,-1 -0.24504,-0.69779 -7.38191,-37.15621 -15.8597,-81.01871 L 295.50894,283 H 271.75447 C 258.68951,283 248,283.20801 248,283.46225 c 0,0.85118 -27.9839,94.85498 -28.34469,95.21577 -0.19573,0.19574 -6.0789,-18.88924 -13.0737,-42.41107 C 199.58681,312.74513 193.13726,291.1375 192.24928,288.25 L 190.63476,283 h -23.60189 -23.60189 l -15.37648,79.25 c -8.45706,43.5875 -15.58151,80.0375 -15.83212,81 -0.42423,1.62934 1.13824,1.75 22.66099,1.75 12.71415,0 23.14552,-0.1125 23.18083,-0.25 z m -35.02878,-10 c 0.0195,-1.2375 6.21386,-33.975 13.76529,-72.75 l 13.72988,-70.5 h 16.90023 16.90024 l 6.83374,23 c 23.72646,79.85499 28.16998,94.49855 28.55758,94.11096 0.23775,-0.23776 8.18617,-26.68499 17.66315,-58.77162 L 254.61641,291.5 h 16.90431 16.90432 l 13.73172,70.5 c 7.55245,38.775 13.75682,71.5125 13.78748,72.75 0.0552,2.22803 -0.0799,2.25 -13.83583,2.25 -13.58819,0 -13.90274,-0.0491 -14.40202,-2.25 -0.28074,-1.2375 -4.26263,-24.4125 -8.84865,-51.5 L 270.51952,334 h -4.22102 c -4.17225,0 -4.23721,0.0549 -5.6224,4.75 -0.77076,2.6125 -7.36646,25.7875 -14.65711,51.5 L 232.76326,437 h -13.31424 c -11.81517,0 -13.37288,-0.19704 -13.83503,-1.75 -0.28643,-0.9625 -6.6318,-23.35 -14.10082,-49.75 -7.46902,-26.4 -13.82032,-48.7875 -14.11399,-49.75 -0.3992,-1.30834 -1.60638,-1.75 -4.78326,-1.75 h -4.2493 l -7.31274,43.25 c -4.022,23.7875 -7.98755,46.9625 -8.81232,51.5 l -1.49959,8.25 h -13.87098 c -13.72856,0 -13.87063,-0.0231 -13.83557,-2.25 z M 375,364 V 283 H 353.5 332 v 81 81 h 21.5 21.5 z m -34,0 v -73 h 12.5 12.5 v 73 73 H 353.5 341 Z M 120.39794,257.86455 c 2.79748,-1.27462 3.82057,-3.13155 2.96037,-5.37318 C 122.01287,248.9852 114,250.02558 114,253.70644 114,255.0881 116.66624,259 117.60793,259 c 0.16388,0 1.41938,-0.51095 2.79001,-1.13545 z m 21.41199,-3.04729 C 142.20147,251.42816 139.05849,249.36315 136,251 c -3.94093,2.10912 -1.63875,7.33425 2.99298,6.79298 1.8835,-0.22011 2.5841,-0.9602 2.81695,-2.97572 z m 19.1513,1.25518 c 1.21031,-2.26148 0.50043,-4.68131 -1.61099,-5.49154 -3.45564,-1.32605 -7.26705,4.16896 -4.68357,6.75243 1.37943,1.37944 5.30202,0.59369 6.29456,-1.26089 z m 18.07298,-0.13636 c 1.48165,-2.76849 -0.4902,-5.13899 -3.94006,-4.73664 -2.61675,0.30519 -3.77247,2.59051 -2.71011,5.35897 0.84176,2.1936 5.36992,1.76984 6.65017,-0.62233 z m 16.92592,0.61196 C 198.18725,253.86452 196.80071,251.5 193,251.5 c -2.54754,0 -3.56485,0.47898 -3.81888,1.79804 C 188.74271,255.5745 190.71268,258 193,258 c 0.96531,0 2.29737,-0.65338 2.96013,-1.45196 z m 20.07408,-0.61196 c 1.48165,-2.76849 -0.4902,-5.13899 -3.94006,-4.73664 -2.89246,0.33735 -3.94307,3.07275 -2.05428,5.3486 1.73466,2.09014 4.71083,1.7863 5.99434,-0.61196 z m 19.92702,0.13636 c 0.56738,-1.06015 0.75077,-2.65938 0.40754,-3.55384 -0.88031,-2.29403 -6.73082,-1.66008 -7.19316,0.77944 -0.78484,4.14123 4.8263,6.43543 6.78562,2.7744 z m 15.87626,1.04916 c 0.73562,-0.46628 1.18562,-1.92189 1,-3.23469 -0.2669,-1.88763 -0.94221,-2.38691 -3.2285,-2.38691 -3.59911,0 -5.57124,2.63564 -3.67856,4.91618 1.44199,1.73749 3.82909,2.02255 5.90706,0.70542 z M 271.8,256.8 c 2.98558,-2.98558 -0.32571,-7.65938 -4.02418,-5.68002 -1.73312,0.92754 -2.43926,4.88324 -1.10915,6.21335 1.06133,1.06133 3.8259,0.7741 5.13333,-0.53333 z m 21.03749,0.3216 c 0.73562,-0.46628 1.18562,-1.92189 1,-3.23469 -0.2669,-1.88763 -0.94221,-2.38691 -3.2285,-2.38691 -3.20027,0 -5.26828,2.33955 -4.29952,4.86408 0.66837,1.74174 4.3088,2.16418 6.52802,0.75752 z m 17.12733,-1.05586 c 1.41562,-2.64512 1.36828,-2.80138 -1.39776,-4.61376 C 305.63644,249.53177 302,250.93467 302,253.98549 c 0,3.7656 6.19668,5.38404 7.96482,2.08025 z M 329.8,256.8 c 1.81447,-1.81447 1.44033,-4.60101 -0.77708,-5.78773 -2.86697,-1.53436 -6.54501,2.14368 -5.01065,5.01065 1.18672,2.21741 3.97326,2.59155 5.78773,0.77708 z m 19,0 c 1.70719,-1.70719 1.48424,-4.54155 -0.44203,-5.61955 -2.29985,-1.28706 -5.17739,-0.32478 -5.90747,1.97551 -1.18154,3.7227 3.55341,6.44013 6.3495,3.64404 z m 18,0 c 3.18734,-3.18734 -0.76293,-7.96057 -4.8,-5.8 -2.05597,1.10032 -2.45474,2.65138 -1.39301,5.41821 0.71537,1.86423 4.47857,2.09623 6.19301,0.38179 z m 18.26957,-0.38382 c 1.88897,-2.27607 -0.0792,-4.91618 -3.66486,-4.91618 -2.95524,0 -4.17679,2.04561 -3.02067,5.05841 0.74001,1.92844 5.043,1.83689 6.68553,-0.14223 z M 332,218.84741 C 359.81532,211.87797 383.08574,189.87764 392.12921,162 399.23888,140.08355 396.29425,116.37753 383.8328,95.208925 379.54108,87.918472 364.21964,72.381711 356.5,67.492012 c -13.58727,-8.606321 -27.99431,-12.796221 -44,-12.796221 -23.05814,0 -43.54893,9.09599 -60.36083,26.794553 -28.44959,29.950016 -30.7952,73.879556 -5.68332,106.439476 20.79807,26.96666 53.76264,38.8808 85.54415,30.91759 z m -34.44776,-7.49949 C 284.0729,208.45906 273.08558,202.6028 262.15023,192.4786 245.80003,177.3412 238,159.74573 238,138 c 0,-21.29602 6.343,-36.28191 22,-51.976931 10.65625,-10.682126 18.47909,-15.741533 30.5,-19.72581 7.12496,-2.361536 9.53132,-2.651565 22,-2.651565 12.46868,0 14.87504,0.290029 22,2.651565 11.99216,3.974749 19.84465,9.04739 30.5,19.702741 15.6326,15.6326 22,30.68282 22,52 0,16.93125 -3.77303,28.80735 -13.50222,42.5 -17.63075,24.81313 -47.49797,36.94474 -75.94554,30.84792 z m 29.55194,-26.32446 c 10.89119,-3.34843 23.21701,-13.84828 29.23376,-24.90304 7.22685,-13.2781 7.44141,-29.61615 0.5752,-43.79985 -3.24431,-6.70184 -14.7442,-18.418882 -21.73403,-22.144422 -15.12138,-8.059611 -30.23684,-8.059611 -45.35822,0 -6.98983,3.72554 -18.48972,15.442582 -21.73403,22.144422 -8.95197,18.49229 -6.01425,38.26389 8.02593,54.01662 13.62727,15.28945 31.90593,20.55397 50.99139,14.68627 z M 304.22252,177.9982 C 293.71428,175.77914 281.05575,165.38595 275.49556,154.41215 272.73372,148.96127 272.5,147.68078 272.5,138 c 0,-9.32659 0.30274,-11.14607 2.70897,-16.28122 3.73499,-7.97086 12.28562,-16.65545 20.50725,-20.82853 C 301.99965,97.700949 302.99447,97.5 312.5,97.5 c 9.50553,0 10.50035,0.200949 16.78378,3.39025 8.22163,4.17308 16.77226,12.85767 20.50725,20.82853 2.40623,5.13515 2.70897,6.95463 2.70897,16.28122 0,9.67176 -0.23664,10.97148 -3,16.4771 -4.01955,8.00842 -13.09161,16.96998 -20.84875,20.59482 -6.88111,3.21548 -17.20372,4.45201 -24.42873,2.92628 z m -152.21994,18.2518 0.003,-22.75 15.15342,22.75 15.15342,22.75 h 26.96269 26.96268 l -2.84871,-3.75 c -1.56679,-2.0625 -11.78374,-15.19741 -22.70432,-29.18868 l -19.85561,-25.43869 4.83563,-2.45396 c 7.31969,-3.71457 12.74883,-8.61237 17.72948,-15.99432 8.97337,-13.29967 11.79335,-30.08806 7.74382,-46.101798 C 218.60661,86.06357 215.47336,80.426401 208.18394,72.766926 201.42189,65.661598 194.81975,61.356648 186.90904,58.89456 181.41083,57.183324 177.34694,57 144.91091,57 H 109 v 81 81 H 130.5 152 Z M 118,138 V 65 l 27.25,0.0058 c 14.9875,0.0032 29.95,0.447402 33.25,0.987147 13.52196,2.211641 25.61544,11.633188 31.76718,24.748534 2.71311,5.784273 3.22664,8.145073 3.56248,16.377187 0.64533,15.81838 -3.02959,26.83767 -12.03597,36.09007 -5.01103,5.14792 -14.38385,10.20833 -20.96805,11.32073 -2.80725,0.47428 -3.808,1.07413 -3.431,2.05656 0.41568,1.08327 16.54895,22.06826 40.87248,53.16398 0.77333,0.98863 -2.36105,1.25 -14.99037,1.25 H 187.30862 L 169,183.5 150.69138,156 H 146.84569 143 V 183.5 211 H 130.5 118 Z m 57.01122,-2.66787 c 9.8905,-4.40331 15.31366,-13.19733 15.31366,-24.83213 0,-8.30824 -2.36774,-14.47619 -7.5442,-19.652656 C 176.4245,84.491171 173.21452,83.561957 157.5,83.529191 l -14,-0.02919 -0.26736,25.98358 c -0.14704,14.29097 -0.0263,26.61189 0.26844,27.37982 0.88047,2.29448 25.61705,1.09237 31.51014,-1.53127 z M 152,110.5 V 92 h 8.66214 c 7.42224,0 9.26932,0.355829 12.90395,2.485866 6.05501,3.548472 8.87941,9.664404 8.15459,17.657884 C 180.65129,123.93724 174.18285,129 160.18428,129 H 152 Z"
         id="path2" />
    </g>
  </g>
</svg>
