<?xml version="1.0" encoding="UTF-8" standalone="no"?>
<!-- Created with Inkscape (http://www.inkscape.org/) -->

<svg
   version="1.1"
   id="svg1"
   width="500"
   height="500"
   viewBox="0 0 500 500"
   sodipodi:docname="icon.png"
   xmlns:inkscape="http://www.inkscape.org/namespaces/inkscape"
   xmlns:sodipodi="http://sodipodi.sourceforge.net/DTD/sodipodi-0.dtd"
   xmlns="http://www.w3.org/2000/svg"
   xmlns:svg="http://www.w3.org/2000/svg">
  <defs
     id="defs1" />
  <sodipodi:namedview
     id="namedview1"
     pagecolor="#505050"
     bordercolor="#eeeeee"
     borderopacity="1"
     inkscape:showpageshadow="0"
     inkscape:pageopacity="0"
     inkscape:pagecheckerboard="0"
     inkscape:deskcolor="#505050"
     showgrid="false" />
  <g
     inkscape:groupmode="layer"
     inkscape:label="Image"
     id="g1">
    <g
       id="g2">
      <path
         style="fill:#39fc00"
         d="M 21,249.5 V 20 H 250 479 V 249.5 479 H 250 21 Z M 466,250 V 34 H 250 34 V 250 466 H 250 466 Z M 117.37537,439.25 c 0.28058,-0.9625 6.64144,-33.475 14.13524,-72.25 7.4938,-38.775 14.08185,-72.6375 14.64011,-75.25 l 1.01501,-4.75 20.16713,0.01 20.16714,0.01 6.16077,20.74013 c 21.95023,73.89502 25.76859,86.21217 26.36396,85.04396 0.36547,-0.71711 7.58856,-24.81634 16.05132,-53.55384 L 251.46287,287 h 20.16016 c 20.07915,0 20.16234,0.009 20.70357,2.25 0.29888,1.2375 6.89197,35.1 14.6513,75.25 7.75934,40.15 14.34391,73.7875 14.63238,74.75 0.48656,1.62341 -0.84185,1.75 -18.36479,1.75 H 284.3562 l -8.92364,-52.42112 c -4.90801,-28.83162 -9.11045,-52.23433 -9.33876,-52.00601 -0.22831,0.22831 -7.02582,23.70531 -15.10557,52.17112 L 236.29778,440.5 H 219.48299 202.6682 l -14.71654,-51.7991 c -8.09409,-28.48951 -14.89719,-51.97977 -15.118,-52.20057 -0.22081,-0.22081 -4.41832,23.20128 -9.3278,52.0491 L 154.57953,441 h -18.85715 c -17.48687,0 -18.82008,-0.12717 -18.34701,-1.75 z M 336,364 v -77 h 17 17 v 77 77 H 353 336 Z M 115.65499,257.17126 c -2.24831,-2.48435 -2.08005,-4.87341 0.43815,-6.22111 3.98414,-2.13224 8.73361,0.73179 7.32046,4.4144 -0.41862,1.09091 -4.48215,3.63545 -5.80567,3.63545 -0.16387,0 -1.0427,-0.82293 -1.95294,-1.82874 z m 19.42684,-0.57266 c -2.26919,-2.73421 -0.90958,-5.0986 2.93187,-5.0986 3.207,0 3.4863,0.24034 3.4863,3 0,2.48232 -0.44617,3.05186 -2.5856,3.30056 -1.42207,0.1653 -3.14673,-0.37558 -3.83257,-1.20196 z m 19.30221,-0.0402 c -1.15493,-3.00969 0.0825,-5.05355 3.2465,-5.36225 3.56094,-0.34743 4.99932,1.75843 3.33069,4.87628 -1.21351,2.26747 -5.76453,2.60373 -6.57719,0.48597 z m 18,0 c -1.06236,-2.76846 0.0934,-5.05378 2.71011,-5.35897 3.44986,-0.40235 5.42171,1.96815 3.94006,4.73664 -1.28025,2.39217 -5.80841,2.81593 -6.65017,0.62233 z m 17.65583,-0.0104 C 187.81275,253.86452 189.19929,251.5 193,251.5 c 2.54754,0 3.56485,0.47898 3.81888,1.79804 C 197.25729,255.5745 195.28732,258 193,258 c -0.96531,0 -2.29737,-0.65338 -2.96013,-1.45196 z M 210.2,256.8 c -2.06345,-2.06345 -1.38476,-4.71552 1.38464,-5.4106 3.59718,-0.90284 6.04911,1.55792 4.4778,4.49394 -1.2522,2.33975 -4.00839,2.77071 -5.86244,0.91666 z m 19.83987,-0.25196 c -2.06007,-2.48223 -0.83265,-5.01788 2.59067,-5.35188 3.56094,-0.34743 4.99932,1.75843 3.33069,4.87628 -1.21989,2.27939 -4.22409,2.52069 -5.92136,0.4756 z m 15.89056,-0.13186 c -1.89268,-2.28054 0.0795,-4.91618 3.67856,-4.91618 2.28629,0 2.9616,0.49928 3.2285,2.38691 0.54708,3.86918 -4.31685,5.65028 -6.90706,2.52927 z m 20.45361,0.14223 c -0.30425,-0.79287 -0.39647,-2.25537 -0.20492,-3.25 0.48612,-2.52419 6.15394,-2.53305 6.63976,-0.0104 0.71742,3.72525 -5.12124,6.68355 -6.43484,3.26037 z m 19.92543,-0.19433 c -0.96876,-2.52453 1.09925,-4.86408 4.29952,-4.86408 2.28629,0 2.9616,0.49928 3.2285,2.38691 0.18562,1.3128 -0.26438,2.76841 -1,3.23469 -2.21922,1.40666 -5.85965,0.98422 -6.52802,-0.75752 z m 17.27292,0.31982 c -2.77316,-2.02778 -1.63649,-5.12808 2.01097,-5.48497 3.94647,-0.38613 6.00662,1.81147 4.44085,4.73715 -1.26432,2.36241 -3.83608,2.6605 -6.45182,0.74782 z m 20.57006,-0.39904 C 322.77333,253.70795 324.53015,251 327.58107,251 c 1.37511,0 2.76162,0.72946 3.10946,1.63592 1.48424,3.86786 -4.60279,7.26506 -6.53808,3.64894 z m 18.92743,0.31138 c -0.68482,-0.82514 -0.95261,-2.42186 -0.59511,-3.54825 0.81872,-2.57955 6.25473,-2.89041 7.20576,-0.41207 1.4297,3.72574 -4.07062,7.02088 -6.61065,3.96032 z m 17.52711,-0.17803 C 359.54526,253.65138 359.94403,252.10032 362,251 c 4.03707,-2.16057 7.98734,2.61266 4.8,5.8 -1.71444,1.71444 -5.47764,1.48244 -6.19301,-0.38179 z m 18.10559,0.96103 C 378.32066,256.98733 378,255.62524 378,254.35239 c 0,-3.07372 4.4312,-4.34976 6.81768,-1.96328 1.26386,1.26386 1.39555,2.0523 0.56451,3.37965 -1.13032,1.80536 -5.43525,2.84485 -6.66961,1.61048 z m -80.3633,-41.35709 c -29.85543,-6.35821 -54.23638,-29.25793 -62.5214,-58.72297 -3.12714,-11.12144 -3.1159,-27.75121 0.0262,-38.79918 3.98142,-13.99895 10.33414,-24.660021 21.14588,-35.486792 16.85836,-16.881796 33.39131,-23.954746 56.09004,-23.995844 34.5056,-0.06248 66.18152,24.712422 76.05147,59.482636 3.166,11.15331 3.18924,27.76883 0.0543,38.79918 -7.47579,26.30341 -27.20461,47.13804 -52.99824,55.9688 -7.46004,2.55404 -10.47603,3.02469 -21.19753,3.30792 -6.875,0.18162 -14.36782,-0.0676 -16.65072,-0.55375 z m 26.4158,-34.8719 c 21.25259,-6.61455 36.0991,-29.48201 32.35025,-49.82775 -1.733,-9.40531 -5.37404,-16.45688 -12.34544,-23.90934 -18.25276,-19.512249 -46.2626,-19.569894 -64.40168,-0.13254 -13.7435,14.72717 -16.73976,32.33115 -8.39298,49.31145 9.99452,20.33238 32.59146,30.84462 52.78985,24.55818 z M 114,138 V 61 h 31.7899 c 34.63415,0 39.36786,0.56331 48.2101,5.736998 18.09186,10.585729 27.38302,30.758325 24.07742,52.275912 -2.69634,17.55161 -12.99873,31.02486 -28.56635,37.35845 l -5.58707,2.27307 21.538,27.61093 c 11.8459,15.18601 21.538,27.86602 21.538,28.17779 0,0.31177 -9.5625,0.55566 -21.25,0.54198 l -21.25,-0.0249 -18,-27.12078 -18,-27.12077 -0.26607,27.14564 L 147.96786,215 H 130.98393 114 Z m 59.5562,-6.59369 c 15.05438,-7.14377 16.95343,-30.53685 3.25071,-40.043254 -3.90971,-2.712405 -4.77618,-2.880502 -16.46689,-3.194613 L 148,87.836887 V 110.41844 133 h 11.09887 c 8.0841,0 12.01112,-0.43289 14.45733,-1.59369 z"
         id="path3" />
      <path
         style="fill:#000100"
         d="M 0,250 V 0 H 250 500 V 250 500 H 250 0 Z m 479,-0.5 V 20 H 250 21 V 249.5 479 H 250 479 Z M 34,250 V 34 H 250 466 V 250 466 H 250 34 Z m 129.50586,138.54943 c 4.90948,-28.84782 9.10699,-52.26991 9.3278,-52.0491 0.22081,0.2208 7.02391,23.71106 15.118,52.20057 L 202.6682,440.5 h 16.81479 16.81479 l 14.69045,-51.75601 c 8.07975,-28.46581 14.87726,-51.94281 15.10557,-52.17112 0.22831,-0.22832 4.43075,23.17439 9.33876,52.00601 L 284.3562,441 h 18.88929 c 17.52294,0 18.85135,-0.12659 18.36479,-1.75 -0.28847,-0.9625 -6.87304,-34.6 -14.63238,-74.75 -7.75933,-40.15 -14.35242,-74.0125 -14.6513,-75.25 -0.54123,-2.24096 -0.62442,-2.25 -20.70357,-2.25 h -20.16016 l -15.38682,52.25 c -8.46276,28.7375 -15.68585,52.83673 -16.05132,53.55384 -0.59537,1.16821 -4.41373,-11.14894 -26.36396,-85.04396 L 187.5,287.01975 l -20.16714,-0.01 -20.16713,-0.01 -1.01501,4.75 c -0.55826,2.6125 -7.14631,36.475 -14.64011,75.25 -7.4938,38.775 -13.85466,71.2875 -14.13524,72.25 -0.47307,1.62283 0.86014,1.75 18.34701,1.75 h 18.85715 z M 370,364 v -77 h -17 -17 v 77 77 h 17 17 z M 120.39794,257.86455 c 2.79748,-1.27462 3.82057,-3.13155 2.96037,-5.37318 C 122.01287,248.9852 114,250.02558 114,253.70644 114,255.0881 116.66624,259 117.60793,259 c 0.16388,0 1.41938,-0.51095 2.79001,-1.13545 z M 141.5,254.5 c 0,-2.75966 -0.2793,-3 -3.4863,-3 -2.56072,0 -3.57824,0.47736 -3.83258,1.79804 -0.51181,2.65759 1.78764,4.84493 4.73328,4.50252 2.13943,-0.2487 2.5856,-0.81824 2.5856,-3.30056 z m 19.46123,1.57244 c 1.66863,-3.11785 0.23025,-5.22371 -3.33069,-4.87628 -3.164,0.3087 -4.40143,2.35256 -3.2465,5.36225 0.81266,2.11776 5.36368,1.7815 6.57719,-0.48597 z m 18.07298,-0.13636 c 1.48165,-2.76849 -0.4902,-5.13899 -3.94006,-4.73664 -2.61675,0.30519 -3.77247,2.59051 -2.71011,5.35897 0.84176,2.1936 5.36992,1.76984 6.65017,-0.62233 z m 16.92592,0.61196 C 198.18725,253.86452 196.80071,251.5 193,251.5 c -2.54754,0 -3.56485,0.47898 -3.81888,1.79804 C 188.74271,255.5745 190.71268,258 193,258 c 0.96531,0 2.29737,-0.65338 2.96013,-1.45196 z m 20.10231,-0.6647 c 0.89446,-1.67132 0.81447,-2.435 -0.38018,-3.62966 C 213.6888,250.26023 209,251.35862 209,253.81905 c 0,4.16326 5.13573,5.66438 7.06244,2.06429 z m 19.89879,0.1891 c 0.56738,-1.06015 0.75077,-2.65938 0.40754,-3.55384 -0.88031,-2.29403 -6.73082,-1.66008 -7.19316,0.77944 -0.78484,4.14123 4.8263,6.43543 6.78562,2.7744 z m 15.87626,1.04916 c 0.73562,-0.46628 1.18562,-1.92189 1,-3.23469 -0.2669,-1.88763 -0.94221,-2.38691 -3.2285,-2.38691 -3.59911,0 -5.57124,2.63564 -3.67856,4.91618 1.44199,1.73749 3.82909,2.02255 5.90706,0.70542 z m 20.12264,-0.57356 C 274.04249,254.03895 272.80514,251.5 269.5,251.5 c -3.05239,0 -4.28759,2.0052 -3.11596,5.05841 0.7149,1.86301 4.02644,1.85685 5.57609,-0.0104 z m 20.87736,0.57356 c 0.73562,-0.46628 1.18562,-1.92189 1,-3.23469 -0.2669,-1.88763 -0.94221,-2.38691 -3.2285,-2.38691 -3.20027,0 -5.26828,2.33955 -4.29952,4.86408 0.66837,1.74174 4.3088,2.16418 6.52802,0.75752 z m 17.19672,-1.18552 c 1.56577,-2.92568 -0.49438,-5.12328 -4.44085,-4.73715 -3.64746,0.35689 -4.78413,3.45719 -2.01097,5.48497 2.61574,1.91268 5.1875,1.61459 6.45182,-0.74782 z m 20.27281,-0.0502 C 331.80556,253.49413 330.41404,251 327.58107,251 c -3.05092,0 -4.80774,2.70795 -3.42862,5.28486 1.16395,2.17486 4.68499,1.94662 6.15457,-0.39894 z m 19,0 C 350.92324,253.3063 349.40886,251 346.09877,251 c -2.10889,0 -3.15152,0.59084 -3.614,2.04799 -1.3482,4.24781 4.43234,6.65242 6.82225,2.83793 z M 366.8,256.8 c 3.18734,-3.18734 -0.76293,-7.96057 -4.8,-5.8 -2.05597,1.10032 -2.45474,2.65138 -1.39301,5.41821 0.71537,1.86423 4.47857,2.09623 6.19301,0.38179 z m 18.58219,-1.03124 c 0.83104,-1.32735 0.69935,-2.11579 -0.56451,-3.37965 C 382.4312,250.00263 378,251.27867 378,254.35239 c 0,1.27285 0.32066,2.63494 0.71258,3.02685 1.23436,1.23437 5.53929,0.19488 6.66961,-1.61048 z m -49.18466,-42.50078 c 25.79363,-8.83076 45.52245,-29.66539 52.99824,-55.9688 3.13498,-11.03035 3.11174,-27.64587 -0.0543,-38.79918 C 379.27156,83.729786 347.59564,58.954888 313.09004,59.017364 290.39131,59.058462 273.85836,66.131412 257,83.013208 246.18826,93.839979 239.83554,104.50105 235.85412,118.5 c -3.14214,11.04797 -3.15338,27.67774 -0.0262,38.79918 7.16588,25.4849 27.01218,46.9336 51.21555,55.3507 10.8991,3.79033 14.41305,4.28381 27.95657,3.92602 10.7215,-0.28323 13.73749,-0.75388 21.19753,-3.30792 z m -36.29299,-32.16573 c -21.05311,-6.73565 -35.72716,-29.65955 -31.98526,-49.96759 1.65873,-9.00224 5.55335,-16.46492 12.44893,-23.85404 18.13908,-19.437354 46.14892,-19.379709 64.40168,0.13254 13.69539,14.64043 16.63774,32.16005 8.25939,49.17891 -10.02994,20.37374 -32.97105,30.95808 -53.12474,24.51018 z m -151.67061,6.7521 0.26607,-27.14564 18,27.12077 18,27.12078 21.25,0.0249 c 11.6875,0.0137 21.25,-0.23021 21.25,-0.54198 0,-0.31177 -9.6921,-12.99178 -21.538,-28.17779 l -21.538,-27.61093 5.58707,-2.27307 c 3.07289,-1.25018 7.79717,-3.89543 10.4984,-5.87832 C 219.32524,136.314 224.57649,105.90358 211.54804,83.672223 208.40671,78.311918 200.12859,70.322896 194,66.736998 185.15776,61.56331 180.42405,61 145.7899,61 H 114 v 77 77 h 16.98393 16.98393 z M 148,110.41844 V 87.836887 l 12.34002,0.331556 c 11.69071,0.314111 12.55718,0.482208 16.46689,3.194613 10.97135,7.611483 12.42722,26.265334 2.79354,35.793254 C 174.71744,131.98572 171.15899,133 159.09887,133 H 148 Z"
         id="path2" />
    </g>
  </g>
</svg>
